<?xml version="1.0" encoding="UTF-8"?>
<svg width="18px" height="18px" viewBox="0 0 18 18" version="1.1" xmlns="http://www.w3.org/2000/svg" xmlns:xlink="http://www.w3.org/1999/xlink">
    <!-- Generator: Sketch 42 (36781) - http://www.bohemiancoding.com/sketch -->
    <title>email</title>
    <desc>Created with Sketch.</desc>
    <defs></defs>
    <g id="Page-1" stroke="none" stroke-width="1" fill="none" fill-rule="evenodd">
        <g id="Desktop" transform="translate(-306.000000, -709.000000)" fill="#E35A13">
            <path d="M317.547991,716.687202 C317.547991,715.039881 316.690011,714.056064 315.248605,714.056064 C313.349609,714.056064 311.313337,715.94362 311.313337,718.998028 C311.313337,720.702548 312.159877,721.674925 313.647042,721.674925 C315.946429,721.674925 317.547991,719.043787 317.547991,716.687202 Z M324,718.07141 C324,721.629167 321.460379,722.967615 319.28683,723.036254 C319.138114,723.036254 319.080915,723.047693 318.920759,723.047693 C318.211496,723.047693 317.650949,722.841778 317.296317,722.441388 C317.078962,722.189713 316.953125,721.869401 316.918806,721.49189 C316.209542,722.384189 314.974051,723.253608 313.429688,723.253608 C310.970145,723.253608 309.563058,721.732124 309.563058,719.078106 C309.563058,715.428832 312.091239,712.465941 315.179967,712.465941 C316.518415,712.465941 317.59375,713.037928 318.165737,714.010305 L318.188616,713.79295 L318.314453,713.152325 C318.325893,713.060807 318.405971,712.94641 318.486049,712.94641 L319.835938,712.94641 C319.893136,712.94641 319.950335,713.026488 319.984654,713.072247 C320.018973,713.106566 320.030413,713.198084 320.018973,713.255283 L318.646205,720.279278 C318.600446,720.496633 318.589007,720.668229 318.589007,720.828385 C318.589007,721.446131 318.772042,721.571968 319.241071,721.571968 C320.018973,721.549088 322.535714,721.228776 322.535714,718.07141 C322.535714,713.621354 319.664342,710.749981 315.214286,710.749981 C311.17606,710.749981 307.892857,714.033184 307.892857,718.07141 C307.892857,722.109635 311.17606,725.392838 315.214286,725.392838 C316.895926,725.392838 318.543248,724.809412 319.847377,723.745517 C320.007533,723.60824 320.236328,723.63112 320.362165,723.791276 L320.831194,724.351823 C320.888393,724.431901 320.922712,724.523419 320.911272,724.626376 C320.899833,724.717894 320.854074,724.809412 320.773996,724.87805 C319.218192,726.147861 317.239118,726.857124 315.214286,726.857124 C310.375279,726.857124 306.428571,722.910417 306.428571,718.07141 C306.428571,713.232403 310.375279,709.285696 315.214286,709.285696 C320.465123,709.285696 324,712.820573 324,718.07141 Z" id="email"></path>
        </g>
    </g>
</svg>