<?xml version="1.0" encoding="UTF-8"?>
<svg width="11px" height="19px" viewBox="0 0 11 19" version="1.1" xmlns="http://www.w3.org/2000/svg" xmlns:xlink="http://www.w3.org/1999/xlink">
    <!-- Generator: Sketch 42 (36781) - http://www.bohemiancoding.com/sketch -->
    <title>mobile</title>
    <desc>Created with Sketch.</desc>
    <defs></defs>
    <g id="Page-1" stroke="none" stroke-width="1" fill="none" fill-rule="evenodd">
        <g id="Desktop" transform="translate(-355.000000, -709.000000)" fill="#E35A13">
            <path d="M361.645833,725.5 C361.645833,724.869792 361.130208,724.354167 360.5,724.354167 C359.869792,724.354167 359.354167,724.869792 359.354167,725.5 C359.354167,726.130208 359.869792,726.645833 360.5,726.645833 C361.130208,726.645833 361.645833,726.130208 361.645833,725.5 Z M364.625,723.208333 L364.625,713.125 C364.625,712.88151 364.410156,712.666667 364.166667,712.666667 L356.833333,712.666667 C356.589844,712.666667 356.375,712.88151 356.375,713.125 L356.375,723.208333 C356.375,723.451823 356.589844,723.666667 356.833333,723.666667 L364.166667,723.666667 C364.410156,723.666667 364.625,723.451823 364.625,723.208333 Z M361.875,711.0625 C361.875,710.933594 361.77474,710.833333 361.645833,710.833333 L359.354167,710.833333 C359.22526,710.833333 359.125,710.933594 359.125,711.0625 C359.125,711.191406 359.22526,711.291667 359.354167,711.291667 L361.645833,711.291667 C361.77474,711.291667 361.875,711.191406 361.875,711.0625 Z M366,710.833333 L366,725.5 C366,726.502604 365.169271,727.333333 364.166667,727.333333 L356.833333,727.333333 C355.830729,727.333333 355,726.502604 355,725.5 L355,710.833333 C355,709.830729 355.830729,709 356.833333,709 L364.166667,709 C365.169271,709 366,709.830729 366,710.833333 Z" id="mobile"></path>
        </g>
    </g>
</svg>