<?xml version="1.0" encoding="UTF-8"?>
<svg width="18px" height="18px" viewBox="0 0 18 18" version="1.1" xmlns="http://www.w3.org/2000/svg" xmlns:xlink="http://www.w3.org/1999/xlink">
    <!-- Generator: Sketch 42 (36781) - http://www.bohemiancoding.com/sketch -->
    <title>pinterest</title>
    <desc>Created with Sketch.</desc>
    <defs></defs>
    <g id="Page-1" stroke="none" stroke-width="1" fill="none" fill-rule="evenodd">
        <g id="Desktop" transform="translate(-373.000000, -709.000000)" fill="#E35A13">
            <path d="M391,718.07141 C391,713.220963 387.064732,709.285696 382.214286,709.285696 C377.363839,709.285696 373.428571,713.220963 373.428571,718.07141 C373.428571,721.674925 375.590681,724.763653 378.690848,726.124981 C378.667969,725.507236 378.679408,724.763653 378.839565,724.100149 C378.839565,724.100149 379.011161,723.390885 379.972098,719.318341 C379.686105,718.757794 379.686105,717.922693 379.686105,717.922693 C379.686105,716.618564 380.441127,715.646187 381.379185,715.646187 C382.179967,715.646187 382.568917,716.252492 382.568917,716.973196 C382.568917,717.773977 382.054129,718.975149 381.791016,720.084803 C381.573661,721.022861 382.260045,721.777883 383.175223,721.777883 C384.845424,721.777883 385.966518,719.638653 385.966518,717.110472 C385.966518,715.177158 384.662388,713.735751 382.305804,713.735751 C379.640346,713.735751 377.981585,715.726265 377.981585,717.945573 C377.981585,718.712035 378.210379,719.249702 378.565011,719.672972 C378.725167,719.867448 378.748047,719.936086 378.690848,720.164881 C378.645089,720.325037 378.553571,720.713988 378.507812,720.862704 C378.450614,721.091499 378.267578,721.171577 378.073103,721.091499 C376.849051,720.588151 376.277065,719.238263 376.277065,717.728218 C376.277065,715.234356 378.381975,712.237146 382.546038,712.237146 C385.909319,712.237146 388.117188,714.673809 388.117188,717.270629 C388.117188,720.725428 386.195312,723.299367 383.369699,723.299367 C382.420201,723.299367 381.527902,722.784579 381.230469,722.201153 C380.715681,724.225986 380.612723,724.614937 380.612723,724.614937 C380.429688,725.289881 380.052176,725.964825 379.720424,726.491053 C380.521205,726.731287 381.344866,726.857124 382.214286,726.857124 C387.064732,726.857124 391,722.921856 391,718.07141 Z" id="pinterest"></path>
        </g>
    </g>
</svg>