<?xml version="1.0" encoding="UTF-8"?>
<svg width="22px" height="18px" viewBox="0 0 22 18" version="1.1" xmlns="http://www.w3.org/2000/svg" xmlns:xlink="http://www.w3.org/1999/xlink">
    <!-- Generator: Sketch 42 (36781) - http://www.bohemiancoding.com/sketch -->
    <title>twitter</title>
    <desc>Created with Sketch.</desc>
    <defs></defs>
    <g id="Page-1" stroke="none" stroke-width="1" fill="none" fill-rule="evenodd">
        <g id="Desktop" transform="translate(-255.000000, -709.000000)" fill="#E35A13">
            <path d="M277,711.121827 C276.190355,711.470812 275.310914,711.722081 274.403553,711.819797 C275.338832,711.261421 276.050761,710.38198 276.385787,709.335025 C275.520305,709.851523 274.543147,710.228426 273.524112,710.423858 C272.700508,709.544416 271.527919,709 270.229695,709 C267.730964,709 265.720812,711.024112 265.720812,713.508883 C265.720812,713.857868 265.76269,714.206853 265.832487,714.541878 C262.091371,714.346447 258.755076,712.559645 256.535533,709.823604 C256.14467,710.493655 255.92132,711.261421 255.92132,712.098985 C255.92132,713.662437 256.717005,715.044416 257.931472,715.854061 C257.191624,715.826142 256.493655,715.616751 255.893401,715.281726 L255.893401,715.337563 C255.893401,717.529188 257.442893,719.343909 259.508883,719.76269 C259.13198,719.860406 258.727157,719.916244 258.322335,719.916244 C258.029188,719.916244 257.75,719.888325 257.470812,719.846447 C258.043147,721.633249 259.704315,722.931472 261.686548,722.97335 C260.137056,724.187817 258.196701,724.899746 256.088832,724.899746 C255.711929,724.899746 255.362944,724.885787 255,724.843909 C256.996193,726.128173 259.369289,726.86802 261.923858,726.86802 C270.215736,726.86802 274.752538,720 274.752538,714.03934 C274.752538,713.843909 274.752538,713.648477 274.738579,713.453046 C275.61802,712.810914 276.385787,712.015228 277,711.121827 Z" id="twitter"></path>
        </g>
    </g>
</svg>